<svg xmlns="http://www.w3.org/2000/svg" width="1890" height="1417" viewBox="0 0 1890 1417">
  <defs>
    <style>
      .cls-1 {
        fill: #fad000;
        stroke: #fff;
        stroke-width: 1px;
      }

      .cls-1, .cls-2, .cls-3 {
        fill-rule: evenodd;
      }

      .cls-2 {
        fill: #015989;
      }

      .cls-3 {
        fill: #009dc8;
      }
    </style>
  </defs>
  <path id="Forma_1" data-name="Forma 1" class="cls-1" d="M967.781,1252c38.139-47.24,100.8-140.96,151-227,37.61-64.454,76.14-134.49,100-186,30.99-66.894,52.58-124.915,68-186,35.65-141.229,20.76-267.779,3-312-27.67-68.9-76.57-131.989-143-175-62.06-40.18-135.9-61.541-211-59-130.39,4.411-240.807,78.166-299,171-20.788,33.163-37.753,73.946-48,124-8.453,41.293-10.214,91.045-2,152,8.767,65.051,28.175,127.433,43,166,25.516,66.378,54.675,136.158,79,185,68.312,137.16,182.479,302.27,216,345,1.949,2.48,14.664,18.66,22,28C947.369,1277.27,966.819,1253.19,967.781,1252Z"/>
  <path id="Forma_2" data-name="Forma 2" class="cls-2" d="M944,328c99.01-.79,184.69,89.8,173,187-10.03,83.41-88.74,146.333-173,145-87.146-1.379-168.895-71.367-170-164C772.875,401.67,855.9,328.7,944,328Z"/>
  <path id="Forma_3" data-name="Forma 3" class="cls-3" d="M1093.56,374a10.348,10.348,0,0,0,2,4,22.18,22.18,0,0,0,3,3c4.03,2.974,21.81,27.2,31,55,10.37,31.347,11.72,57.1,9,76-3.69,25.709-15.13,54.908-19,61a13.735,13.735,0,0,0-2,6,10.593,10.593,0,0,0,1,5,12.213,12.213,0,0,0,5,5c3.3,1.878,38.5,14.79,74,7,26.93-5.907,46.95-16.644,59-26,22.01-17.082,52.83-52.528,52-103-1.04-63.661-53.31-107.514-95.55-121.026A135.038,135.038,0,0,0,1173.56,340a143.2,143.2,0,0,0-37.56,5c-27.2,7.068-41.4,19.855-42.44,25A11.324,11.324,0,0,0,1093.56,374Z"/>
  <path id="Forma_4" data-name="Forma 4" class="cls-3" d="M855,712c-26.1,7.018-47.364,18.063-59,27-26.935,20.688-40.652,47.133-58,94-5.359,14.479-9.8,28.463-15,43-9.144,25.564-25.753,94.93-33,129a35.534,35.534,0,0,0,0,13c3.007,13.65,15.8,24.69,29,28a47.784,47.784,0,0,0,12,1c34.026-2.95,406.62-.66,431,0a48.644,48.644,0,0,0,13-2c14.16-4.75,26.87-18.33,28-33a35.576,35.576,0,0,0-1-10c-18.34-64.4-35.22-120.809-58-183-7.46-20.352-16.28-45.574-41-69-13.88-13.147-38.24-28.521-73-38-24.2-6.6-51.3-6.716-84-7C910.323,704.691,882.825,704.519,855,712Z"/>
  <path id="Forma_5" data-name="Forma 5" class="cls-2" d="M1043.06,693a14.044,14.044,0,0,0,4,2c3.58,1.014,39.71,12.387,62.41,29.618,2.35,1.782,4.51,3.563,6.53,5.382a102.189,102.189,0,0,1,21.06,27c16.25,29.233,35.09,68.3,47,104,0.8,2.394,7.63,20.716,8,24a8.036,8.036,0,0,0,1,3c1.97,3.127,6.14,3.746,8,4,3.35,0.456,7.82,1.064,9,1,9.79-.525,120.24.187,144-3a20.9,20.9,0,0,0,4-1c8.75-3.2,15.24-12.69,16-22a29.107,29.107,0,0,0-1-9c-3.66-11.808-11.8-60.812-25-94-15.1-37.993-23.88-75.3-39-92-62.11-68.617-166.31-50.745-204-40-40.08,11.428-64.36,41.192-66,45a14.316,14.316,0,0,0-1,4A14.075,14.075,0,0,0,1043.06,693Z"/>
  <path id="Forma_5_copia" data-name="Forma 5 copia" class="cls-2" d="M852.031,693A13.888,13.888,0,0,1,848,695c-8.533,2.36-23.2,8.221-36,12-9.792,2.891-34.007,21.093-53.969,50-16.523,23.927-32.8,61.427-47,104-0.8,2.394-7.63,20.716-8,24a8.017,8.017,0,0,1-1,3c-1.966,3.127-6.135,3.746-8,4-3.35.456-7.815,1.064-9,1-9.783-.525-120.238.187-144-3a20.86,20.86,0,0,1-4-1c-8.746-3.2-15.239-12.69-16-22a29.364,29.364,0,0,1,1-9c3.665-11.808,11.807-60.812,25-94,15.1-37.993,23.881-75.3,39-92,62.115-68.617,166.316-50.745,204-40,40.078,11.428,64.366,41.192,66,45A13.813,13.813,0,0,1,852.031,693Z"/>
  <path id="Forma_3_copia" data-name="Forma 3 copia" class="cls-3" d="M796.438,374a10.278,10.278,0,0,1-2,4,21.885,21.885,0,0,1-3,3c-4.025,2.974-21.8,27.2-31,55-10.371,31.347-11.717,57.1-9,76,3.7,25.709,15.127,54.908,19,61a13.762,13.762,0,0,1,2,6,10.556,10.556,0,0,1-1,5,12.143,12.143,0,0,1-5,5c-3.3,1.878-38.493,14.79-74,7-26.927-5.907-46.945-16.644-59-26-22.01-17.082-52.827-52.528-52-103,1.041-63.661,53.308-107.514,95.556-121.026A125.449,125.449,0,0,1,716.438,340,140.119,140.119,0,0,1,741,343c35.2,7.075,54.209,20.931,55.438,27A11.285,11.285,0,0,1,796.438,374Z"/>
</svg>
